<svg xmlns="http://www.w3.org/2000/svg" viewBox="0 0 100 40"><path fill="#00A65D" d="M36.6 28.24l-6.02-16.56h-2.62L22 28.24h2.58l1.37-3.93h6.62l1.4 3.93h2.63zm-4.8-6.16h-5.1l1.32-3.77a82.03 82.03 0 001.2-3.83c.2.7.86 2.62 1.26 3.8l1.33 3.8zm17.43 6.16l-3.73-8.26 3.14-4.16h-2.77l-2.58 3.62-1.38 2.03.03-2.65V11l-2.42 1.28v15.96h2.43v-3.67l1.9-2.5 2.74 6.17h2.64zm8.7-2.46a3.9 3.9 0 01-1.8.5c-.9 0-1.27-.32-1.27-1.5v-6.73h3.07v-2.23h-3.07V11l-2.4 1.28v3.54H50.7v2.23h1.78v7.16c0 2.23 1.06 3.29 2.78 3.29.97 0 1.8-.24 2.4-.57l.28-2.15zm6.22-13.12c0-.87-.7-1.6-1.56-1.6-.87 0-1.6.71-1.6 1.6a1.58 1.58 0 003.16 0zm-.37 15.58V15.82h-2.43v12.42h2.43zm13.22 0v-8.52c0-2.81-1.89-4.16-4.66-4.16-1.75 0-3.07.39-4.25 1.12l.95 1.85a6.23 6.23 0 013.23-.78c1.51 0 2.34.76 2.34 2.1v.93a6.73 6.73 0 00-2.77-.47c-2.81 0-4.95 1.25-4.95 4.02 0 3.04 2.3 4.18 4.31 4.18a4.9 4.9 0 003.4-1.5v1.23H77zm-2.4-3.53a3.92 3.92 0 01-3 1.59c-1.6 0-2.38-.83-2.38-2.06 0-1.14.99-1.84 2.55-1.84 1.32 0 2.17.21 2.84.54v1.77z"/></svg>
