<svg xmlns="http://www.w3.org/2000/svg" viewBox="0 0 100 40"><path fill="#03426A" d="M95 13H62.78v13.57H95V13zm-.36.34v12.89H63.12V13.34h31.52zM5 26.57h56.38V13H5v13.57z"/><path fill="#fff" d="M94.64 13.34v12.89H63.12V13.34h31.52zM24.48 20.7c0 1.34-.72 2-2.33 2h-2.52v-5h2.45c1.95 0 2.41.95 2.41 1.98v1.02h-.01zm1.02-.03v-.87c0-2.73-2.14-2.84-3.6-2.84h-3.33v6.48h3.62c2.84 0 3.31-1.53 3.31-2.77zm5.64 1.19c0 .37-.04.72-.47.86-.25.09-.61.13-1.2.13-.6 0-.96-.06-1.18-.2-.14-.1-.2-.24-.2-.54 0-.4.1-.61.3-.7.17-.1.42-.11 1.14-.11h1.62l-.01.56zm.99 1.58V20.9c0-.48 0-.8-.04-1.06-.05-.25-.13-.43-.34-.6-.47-.35-1.64-.37-2.2-.37-.43 0-1.6.05-2.03.41-.15.13-.18.27-.18.45l.02.47h.95c.02-.1.04-.4.14-.5.13-.13.35-.18 1.01-.18.76 0 1.28.01 1.5.14.2.1.2.36.2.54v.43h-2.22c-.6 0-1.28.02-1.66.52-.18.22-.25.5-.25.87 0 1.08.67 1.44 2.36 1.44.88 0 1.46-.15 1.8-.43l.09.37.85.04zm5.88 0v-2.47c0-.86-.03-1.02-.25-1.18-.2-.15-.6-.24-1.19-.24-.52 0-1.06.07-1.56.2v3.69h-.98v-4.52h.87l.07.33c.2-.11.34-.18.54-.26a4.8 4.8 0 011.28-.14c.61 0 1.1.09 1.46.25.36.16.55.45.63.8.05.23.07.43.07.95v2.59H38zm7.2-.27c-.45.23-1.19.32-2.14.32-.67 0-1.2-.05-1.64-.16-.45-.1-.68-.32-.7-.7-.02-.2 0-.38.02-.63h.93c.04.23.04.3.04.34.04.22.02.33.27.42.25.07.63.1 1.13.1.62 0 1.05-.07 1.34-.2.2-.08.3-.25.3-.55 0-.36-.07-.5-.45-.56l-.34-.04-.61-.01-.58-.02c-.97-.06-2-.1-2-1.23 0-1.02.63-1.38 2.36-1.38.43 0 .97.03 1.3.07.38.05.66.1.86.23.24.13.3.35.3.69l-.01.34h-.95l-.04-.2c-.05-.25-.07-.29-.14-.34-.15-.1-.56-.16-1.14-.16-.57 0-.92.02-1.19.12-.25.1-.36.26-.36.58 0 .22.1.38.18.45.26.16 1.59.14 2.06.14.48 0 .8.06 1.08.15.5.18.68.5.68 1.15.02.54-.16.88-.56 1.08zm5.98.27l-2.34-2.14h-.34v2.14h-.98v-6.46h.98v3.69h.34l1.94-1.75h1.14l-2.25 2 2.8 2.52h-1.3zm6.11-2.7h-3.1c.03-.58.16-.83.37-.99.24-.16.65-.25 1.26-.25.85 0 1.24.18 1.39.57.05.18.09.33.09.67zm.9 1.28h-.95c-.03.14-.05.48-.18.61-.14.14-.43.22-1.22.22-.77 0-1.2-.11-1.42-.33-.16-.16-.25-.5-.25-1.02v-.13h4.06l.02-.45c0-.76-.1-1.17-.43-1.48-.36-.37-1.08-.57-2.05-.57-1.24 0-2.02.29-2.32.92-.18.36-.3.86-.3 1.49 0 .99.26 1.6.85 1.9.36.2.98.31 1.77.33.66 0 1.19-.03 1.76-.2.56-.18.7-.5.7-.77l-.03-.52z"/><path fill="#03426A" d="M71.04 18.6c0 .95-.54 1.15-1.64 1.15h-2.44V17.7h2.57c.97 0 1.51.09 1.51.9zm1.28 3.02c0-.79-.45-1.38-1.55-1.55v-.01c.85-.22 1.3-.67 1.3-1.35 0-1.14-.56-1.71-2.13-1.71H65.9v6.44h4.22c1.42 0 2.21-.65 2.21-1.82zm-1.04.07c0 .92-.65 1.01-1.66 1.01h-2.66v-2.2h2.8c1.2 0 1.52.38 1.52 1.2zm6.33.17c0 .37-.02.72-.45.86-.25.09-.61.13-1.2.13-.6 0-.96-.06-1.17-.2-.15-.1-.2-.24-.2-.54 0-.4.09-.61.29-.7.18-.1.41-.11 1.15-.11h1.6v.56h-.02zm1 1.58V20.9c0-.48 0-.8-.04-1.06-.06-.25-.13-.43-.35-.6-.46-.35-1.63-.37-2.2-.37-.42 0-1.6.05-2.03.41-.14.13-.18.27-.18.45l.02.47h.96c.01-.1.03-.4.14-.5.13-.13.34-.18 1-.18.76 0 1.29.01 1.5.14.2.1.18.36.18.54v.43h-2.2c-.59 0-1.27.02-1.65.52-.16.22-.25.5-.25.87 0 1.08.66 1.44 2.36 1.44.88 0 1.45-.15 1.8-.43l.09.37.84.04zm5.64 0v-2.47c0-.86-.03-1.02-.25-1.18-.2-.15-.6-.24-1.19-.24-.52 0-1.06.07-1.56.2v3.69h-.97v-4.52h.86l.07.33c.18-.11.34-.18.54-.26.33-.09.72-.14 1.28-.14.61 0 1.1.09 1.46.25.36.16.56.45.63.8.05.23.07.43.07.95v2.59h-.94zm6.32 0l-2.34-2.14h-.34v2.14h-.97v-6.46h.97v3.69h.34l1.95-1.75h1.13l-2.25 1.98 2.8 2.54h-1.29z"/></svg>
