<?xml version="1.0" encoding="utf-8"?>
<!-- Generator: Adobe Illustrator 25.4.1, SVG Export Plug-In . SVG Version: 6.00 Build 0)  -->
<svg version="1.1" id="katman_1" xmlns="http://www.w3.org/2000/svg" xmlns:xlink="http://www.w3.org/1999/xlink" x="0px" y="0px"
	 viewBox="0 0 140 40.75" style="enable-background:new 0 0 140 40.75;" xml:space="preserve">
<style type="text/css">
	.st0{fill:#00D173;}
</style>
<g>
	<path class="st0" d="M35.88,11.67c2.05,0,3.95,0.37,5.69,1.11c1.74,0.74,3.25,1.74,4.53,2.99c1.28,1.26,2.28,2.75,3.02,4.48
		c0.74,1.73,1.11,3.6,1.11,5.61c0,2.02-0.36,3.92-1.08,5.72c-0.72,1.8-1.73,3.37-3.02,4.72c-1.29,1.35-2.81,2.42-4.56,3.21
		c-1.75,0.79-3.64,1.19-5.69,1.19c-2.05,0-3.95-0.4-5.69-1.19c-1.75-0.79-3.26-1.86-4.56-3.21c-1.29-1.35-2.31-2.92-3.05-4.72
		c-0.74-1.8-1.11-3.7-1.11-5.72c0-2.01,0.37-3.88,1.11-5.61c0.74-1.73,1.75-3.22,3.05-4.48c1.29-1.26,2.81-2.26,4.56-2.99
		C31.93,12.04,33.83,11.67,35.88,11.67z M35.88,34.76c1.11,0,2.11-0.28,2.99-0.84c0.88-0.56,1.62-1.27,2.21-2.13
		c0.59-0.86,1.05-1.83,1.38-2.89c0.32-1.06,0.48-2.08,0.48-3.05c0-0.97-0.16-1.95-0.48-2.94c-0.32-0.99-0.79-1.88-1.4-2.67
		c-0.61-0.79-1.35-1.43-2.21-1.91s-1.85-0.73-2.97-0.73c-1.12,0-2.11,0.24-2.99,0.73c-0.88,0.49-1.62,1.12-2.21,1.91
		c-0.59,0.79-1.05,1.68-1.38,2.67c-0.32,0.99-0.49,1.97-0.49,2.94c0,1.01,0.16,2.03,0.49,3.08c0.32,1.04,0.78,2,1.38,2.86
		c0.59,0.86,1.33,1.57,2.21,2.13C33.76,34.48,34.76,34.76,35.88,34.76z"/>
	<path class="st0" d="M66.84,11.67c2.05,0,3.95,0.37,5.69,1.11c1.74,0.74,3.25,1.74,4.53,2.99c1.28,1.26,2.28,2.75,3.02,4.48
		c0.74,1.73,1.11,3.6,1.11,5.61c0,2.02-0.36,3.92-1.08,5.72c-0.72,1.8-1.73,3.37-3.02,4.72c-1.29,1.35-2.81,2.42-4.56,3.21
		c-1.75,0.79-3.64,1.19-5.69,1.19c-2.05,0-3.95-0.4-5.69-1.19c-1.75-0.79-3.26-1.86-4.56-3.21c-1.29-1.35-2.31-2.92-3.05-4.72
		c-0.74-1.8-1.11-3.7-1.11-5.72c0-2.01,0.37-3.88,1.11-5.61c0.74-1.73,1.75-3.22,3.05-4.48c1.29-1.26,2.81-2.26,4.56-2.99
		C62.9,12.04,64.79,11.67,66.84,11.67z M66.84,34.76c1.11,0,2.11-0.28,2.99-0.84c0.88-0.56,1.62-1.27,2.21-2.13
		c0.59-0.86,1.05-1.83,1.38-2.89c0.32-1.06,0.48-2.08,0.48-3.05c0-0.97-0.16-1.95-0.48-2.94c-0.32-0.99-0.79-1.88-1.4-2.67
		c-0.61-0.79-1.35-1.43-2.21-1.91s-1.85-0.73-2.97-0.73c-1.12,0-2.11,0.24-2.99,0.73c-0.88,0.49-1.62,1.12-2.21,1.91
		c-0.59,0.79-1.05,1.68-1.38,2.67c-0.32,0.99-0.49,1.97-0.49,2.94c0,1.01,0.16,2.03,0.49,3.08c0.32,1.04,0.78,2,1.38,2.86
		c0.59,0.86,1.33,1.57,2.21,2.13C64.73,34.48,65.73,34.76,66.84,34.76z"/>
	<path class="st0" d="M84.49,25.8c0-1.94,0.36-3.79,1.08-5.56c0.72-1.76,1.67-3.31,2.86-4.64c1.19-1.33,2.55-2.39,4.1-3.18
		c1.55-0.79,3.15-1.19,4.8-1.19c1.37,0,2.63,0.24,3.78,0.73c1.15,0.49,2.14,1.09,2.97,1.81l0.22,0.11c0.07,0,0.11-0.09,0.11-0.27
		V8.59c0-1.33,0.24-2.38,0.73-3.16c0.49-0.77,1.08-1.37,1.78-1.78c0.7-0.41,1.44-0.67,2.21-0.78c0.77-0.11,1.46-0.16,2.08-0.16
		c0.29,0,0.43,0.14,0.43,0.43v36.9c0,0.29-0.14,0.43-0.43,0.43c-0.5,0-1.08-0.04-1.73-0.14c-0.65-0.09-1.26-0.26-1.83-0.51
		c-0.58-0.25-1.06-0.6-1.46-1.05c-0.4-0.45-0.59-1.03-0.59-1.75c0-0.22-0.05-0.32-0.16-0.32c-0.07,0-0.16,0.09-0.27,0.27
		c-0.65,0.94-1.66,1.8-3.05,2.59c-1.39,0.79-3.1,1.19-5.15,1.19c-1.83,0-3.51-0.44-5.02-1.32c-1.51-0.88-2.82-2.02-3.94-3.43
		c-1.11-1.4-1.98-2.99-2.59-4.77C84.79,29.44,84.49,27.64,84.49,25.8z M98.35,17.49c-1.11,0-2.09,0.27-2.91,0.81
		c-0.83,0.54-1.52,1.22-2.08,2.05c-0.56,0.83-0.97,1.74-1.24,2.75c-0.27,1.01-0.4,1.98-0.4,2.91c0,0.97,0.13,1.98,0.4,3.02
		c0.27,1.04,0.67,2,1.21,2.86c0.54,0.86,1.21,1.57,2.02,2.13c0.81,0.56,1.74,0.84,2.78,0.84c0.76,0,1.51-0.15,2.27-0.46
		c0.76-0.31,1.43-0.73,2.02-1.27s1.07-1.16,1.43-1.86c0.36-0.7,0.54-1.43,0.54-2.19v-5.45c0-0.86-0.15-1.66-0.46-2.4
		c-0.31-0.74-0.73-1.38-1.27-1.94c-0.54-0.56-1.18-1-1.91-1.32C100.01,17.66,99.21,17.49,98.35,17.49z"/>
	<path class="st0" d="M140,40.05c0,0.29-0.14,0.43-0.43,0.43c-0.61,0-1.25-0.05-1.91-0.16c-0.67-0.11-1.29-0.28-1.86-0.51
		c-0.58-0.23-1.06-0.56-1.46-0.97c-0.4-0.41-0.61-0.91-0.65-1.48c0-0.14-0.02-0.22-0.05-0.22c-0.04,0-0.11,0.05-0.22,0.16
		c-0.72,0.76-1.68,1.46-2.89,2.1c-1.21,0.65-2.67,0.97-4.4,0.97c-1.65,0-3.11-0.32-4.37-0.97c-1.26-0.65-2.32-1.5-3.18-2.56
		c-0.86-1.06-1.51-2.29-1.94-3.7s-0.65-2.86-0.65-4.37V12.26c0-0.29,0.14-0.43,0.43-0.43c0.72,0,1.48,0.06,2.29,0.19
		c0.81,0.13,1.55,0.35,2.21,0.67c0.66,0.32,1.22,0.75,1.67,1.27c0.45,0.52,0.67,1.2,0.67,2.02v12.3c0,0.72,0.07,1.45,0.22,2.19
		c0.14,0.74,0.38,1.4,0.7,2c0.32,0.59,0.76,1.07,1.29,1.43c0.54,0.36,1.22,0.54,2.05,0.54c0.65,0,1.29-0.13,1.92-0.38
		c0.63-0.25,1.19-0.58,1.67-1c0.49-0.41,0.87-0.91,1.16-1.48c0.29-0.57,0.43-1.19,0.43-1.83V15.98c0-0.83,0.2-1.5,0.59-2.02
		c0.4-0.52,0.91-0.94,1.54-1.27c0.63-0.32,1.36-0.55,2.19-0.67c0.83-0.13,1.67-0.19,2.54-0.19c0.29,0,0.43,0.14,0.43,0.43V40.05z"/>
	<path class="st0" d="M21.24,2.65c-0.43-1.2-1.23-2.05-2.21-2.29c0,0-14.24-3.49-14.44,11.42H0.43C0.14,11.78,0,11.92,0,12.21
		c0,0.58,0.04,1.19,0.11,1.83c0.07,0.65,0.26,1.24,0.57,1.78c0.31,0.54,0.76,0.98,1.38,1.32c0.61,0.34,1.46,0.51,2.54,0.51
		l0.05,22.39c0,0.29,0.14,0.43,0.43,0.43c0.43,0,1.03-0.04,1.78-0.11c0.76-0.07,1.51-0.26,2.27-0.57c0.76-0.31,1.4-0.78,1.94-1.43
		c0.54-0.65,0.81-1.56,0.81-2.75l-0.05-17.91h7.82c0.29,0,0.43-0.14,0.43-0.43c0-1.55-0.35-2.85-1.05-3.91
		c-0.7-1.06-1.57-1.59-2.62-1.59h-4.59c0-1.11,0.12-2.03,0.35-2.75c0.23-0.72,0.55-1.29,0.94-1.73c0.4-0.43,0.86-0.73,1.4-0.89
		c0.54-0.16,1.1-0.24,1.67-0.24c0.76,0,1.53,0.09,2.32,0.27c0.79,0.18,1.54,0.36,2.25,0.54l0.07,0l0,0
		c0.13,0.03,0.24,0.03,0.31-0.02c0.08-0.05,0.13-0.14,0.17-0.27C21.69,5.19,21.66,3.83,21.24,2.65z"/>
</g>
</svg>
