<svg xmlns="http://www.w3.org/2000/svg" viewBox="0 0 100 40"><path fill="#039" d="M6.9 20v4H5v-9h1.9v3.4h3.5V15h2v9h-2v-4H7zm12.4 2.7c0 .8.2 1 .4 1v.4h-1.9l-.1-.8c-.4.4-1 1-2.2 1-1 0-2-.6-2-2 0-1.3.8-2 1.9-2.2L17 20c.3 0 .6-.2.6-.5 0-.8-.7-.8-1.2-.8-.8 0-1 .5-1 .9h-1.7c.2-2 1.6-2.4 3-2.4 1 0 2.6.3 2.6 2v3.6zm-1.7-2c-.2.2-.5.3-1.2.5-.6 0-1.2.2-1.2 1 0 .6.5.8.8.8.8 0 1.6-.5 1.6-1.3v-1zm9.3 3.3H25v-4c0-.5 0-1.3-1.2-1.3-.7 0-1.3.5-1.3 1.5v3.9h-1.8v-6.7h1.7v1c.2-.5.7-1.2 2-1.2s2.3.7 2.3 2.2v4.7zm7.6 0h-1.7v-.8c-.5.8-1.3 1-2 1-2 0-2.8-1.7-2.8-3.6 0-2.3 1.3-3.4 2.8-3.4 1.1 0 1.6.6 2 1V15h1.7v9zm-3.3-1.2c1.2 0 1.6-1 1.6-2s-.3-2.1-1.5-2.1c-1.1 0-1.5 1-1.5 2 0 .8.3 2 1.4 2zm10.5-.8c-.4 1.7-1.8 2.2-3 2.2-1.8 0-3.3-.9-3.3-3.6 0-.8.3-3.4 3.2-3.4 1.4 0 3.2.6 3.2 3.7v.3h-4.6c0 .5.1 1.6 1.6 1.6.5 0 1-.2 1.1-.7h1.8zM40 20c-.1-1-.8-1.4-1.4-1.4-.8 0-1.3.5-1.4 1.4H40zm4.7 4h-1.8v-9h1.8v9zm5.3-4.6c0-.4-.2-.9-1.2-.9s-1 .4-1 .7c0 1 4.2.3 4.2 2.7 0 2-2 2.3-3 2.3-1.5 0-3.2-.5-3.2-2.3h1.8c0 .6.4 1 1.5 1 .9 0 1-.4 1-.7 0-1.1-4-.3-4-2.8 0-1 .5-2.2 2.6-2.2 1.4 0 3 .3 3 2.2H50zm4.8-1.2c.3-.4.9-1 2-1 1.5 0 2.8 1.1 2.8 3.4 0 1.9-.8 3.6-2.8 3.6-.8 0-1.6-.2-2-1v.9H53V15h1.7v3.2zm1.5.5c-1.2 0-1.6 1-1.6 2.2 0 1 .5 1.9 1.6 1.9s1.5-1.2 1.5-2c0-1.1-.4-2.1-1.5-2.1zm9.8 4c0 .8.2 1 .4 1v.4h-1.9l-.2-.8c-.4.4-1 1-2.1 1-1 0-2-.6-2-2 0-1.3.8-2 1.9-2.2l1.6-.2c.3 0 .6-.2.6-.5 0-.8-.7-.8-1.2-.8-.9 0-1 .5-1 .9h-1.7c.2-2 1.6-2.4 3-2.4.9 0 2.6.3 2.6 2v3.6zm-1.7-2c-.2.2-.5.3-1.2.5-.7 0-1.2.2-1.2 1 0 .6.5.8.8.8.8 0 1.6-.5 1.6-1.3v-1zm9.2 3.3H72v-4c0-.5 0-1.3-1.2-1.3-.8 0-1.4.5-1.4 1.5v3.9h-1.7v-6.7h1.7v1c.2-.5.7-1.2 2-1.2s2.3.7 2.3 2.2v4.7zm3.4 0h-1.8v-9H77v4.9l2.2-2.5h2.2L79 20l2.4 4h-2l-1.7-2.8-.7.7v2.2zm10.8-2c-.5 1.7-1.8 2.2-3 2.2-1.8 0-3.3-.9-3.3-3.6 0-.8.3-3.4 3.2-3.4 1.4 0 3.2.6 3.2 3.7v.3h-4.6c0 .5.1 1.6 1.6 1.6.5 0 1-.2 1.1-.7h1.8zm-1.7-2c-.1-1-.8-1.4-1.4-1.4-.8 0-1.3.5-1.4 1.4h2.8zm8.9 4h-1.8v-4c0-.5 0-1.3-1.1-1.3-.8 0-1.4.5-1.4 1.5v3.9h-1.8v-6.7h1.7v1c.3-.5.8-1.2 2-1.2 1.4 0 2.4.7 2.4 2.2v4.7z"/></svg>
