<svg xmlns="http://www.w3.org/2000/svg" viewBox="0 0 100 40"><path fill="#0071CE" d="M75.8 26.5c.4 1-.1 2-1 2.4l-23.7 9.7H31.5l-2.4-6h.8c2 0 3-.7 3-2.7v-3.3c.5 2.1 2.3 3.3 4.6 3.3 2.2 0 4-1.2 4.6-3.2v.6c0 2 1 2.6 2.6 2.6a5 5 0 003-1.1c.1.8.4 1 .9 1h2v-.6c.8.4 1.7.7 3.3.7 2.7 0 4-1.1 4-3 0-2-1-2.6-3.1-2.9-1.1 0-1.5-.3-1.5-.6 0-.5.3-.7 1.1-.7 1 0 1.6.3 2 .6h1v-.5h.6v4.5c0 2 1.2 2.6 3 2.6.8 0 1.4 0 1.8-.2v-1.8h-.6c-.8 0-1.1-.2-1.1-1v-4.1h1.6v-2h-1.6v-2.3H58v2.3h-1v.3c-.7-.2-1.4-.4-2.7-.4-1.9 0-3.2.6-3.6 2v-1.9h-3v6.6l-1.5.3c-.7 0-1.1-.2-1.1-1v-5.9h-3V24a4.6 4.6 0 00-4.6-3.4 4.7 4.7 0 00-4.7 3.4v-1.5c0-1.4-.1-1.7-1-1.7h-2v9c0 .7-.2 1-1 1h-.5l-4.1-10.4c-.4-1 0-2 1-2.5L64 2.2c1-.4 2 0 2.4 1l9.4 23.3zm-20.8.7c0 .5-.5.6-1.3.6-1 0-1.7-.3-2-.6h-1v-2.6c.3 1.1 1.3 1.6 2.8 1.8 1.2.2 1.5.3 1.5.8zm-16-1.8c0 1.7-.6 2.5-1.6 2.5s-1.6-.8-1.6-2.5c0-1.8.6-2.6 1.6-2.6s1.7.8 1.7 2.6z"/><path fill="#FFF" d="M31.3 20.3c1 0 1.6-.7 1.6-1.5s-.7-1.4-1.6-1.4c-.9 0-1.6.6-1.6 1.4 0 .9.7 1.5 1.6 1.5zm35.5.4c-2.7 0-4.8 1.8-4.8 4.6 0 2.9 2.1 4.6 4.8 4.6 2.7 0 4.8-1.7 4.8-4.6 0-2.8-2.1-4.6-4.8-4.6zm0 7.2c-1 0-1.7-.8-1.7-2.5 0-1.8.7-2.6 1.7-2.6s1.7.8 1.7 2.6c0 1.7-.7 2.5-1.7 2.5zm-4.7 0c-.8 0-1-.2-1-1v-4.1h1.6v-2H61v-2.3h-3v2.3h-1v.3a9 9 0 00-2.7-.4c-1.9 0-3.2.7-3.6 2v-1.9h-3v6.6l-1.5.3c-.7 0-1.1-.2-1.1-1v-5.9h-3V24c-.6-2.1-2.4-3.3-4.7-3.3-2.2 0-4 1.2-4.6 3.3v-1.5c0-1.3-.1-1.7-1-1.7h-2v9c0 .7-.3 1-1 1h-.5l.7 1.8h.8c2 0 3-.7 3-2.7v-3.3c.5 2.1 2.4 3.3 4.6 3.3 2.3 0 4-1.2 4.6-3.2v.6c0 2 1.1 2.6 2.6 2.6a5 5 0 003-1.1c.2.8.4 1 1 1h2v-.6c.8.4 1.7.7 3.2.7 2.8 0 4-1.1 4-3 0-2-1-2.6-3-2.8-1.2-.2-1.6-.4-1.6-.7 0-.5.3-.7 1.2-.7.9 0 1.5.3 2 .6h.9v-.5h.7v4.5c0 2 1.1 2.6 3 2.6.7 0 1.3 0 1.7-.2v-1.8h-.6zm-24.7 0c-1 0-1.6-.8-1.6-2.5 0-1.8.6-2.6 1.6-2.6s1.7.8 1.7 2.6c0 1.7-.7 2.5-1.7 2.5zm16-1.5c1.3.2 1.6.3 1.6.8 0 .4-.5.6-1.3.6-1 0-1.7-.3-2-.6h-1v-2.6c.3 1.1 1.3 1.6 2.8 1.8z"/></svg>
