<?xml version="1.0" encoding="utf-8"?>
<!-- Generator: Adobe Illustrator 25.4.1, SVG Export Plug-In . SVG Version: 6.00 Build 0)  -->
<svg version="1.1" id="katman_1" xmlns="http://www.w3.org/2000/svg" xmlns:xlink="http://www.w3.org/1999/xlink" x="0px" y="0px"
	 viewBox="0 0 64.06 17.95" style="enable-background:new 0 0 64.06 17.95;" xml:space="preserve">
<style type="text/css">
	.st0{fill:#6D6E70;}
	.st1{fill-rule:evenodd;clip-rule:evenodd;fill:#FFD100;}
</style>
<g>
	<path class="st0" d="M3.24,0c0.14,0,0.2,0.07,0.2,0.2v12.78c0,0.37,0.03,0.75,0.1,1.12c0.07,0.37,0.19,0.73,0.37,1.06
		c0.18,0.33,0.43,0.63,0.75,0.91c0.32,0.27,0.73,0.49,1.22,0.66c0.14,0.05,0.23,0.14,0.27,0.26c0.04,0.12,0.06,0.24,0.04,0.37
		c-0.02,0.13-0.07,0.24-0.17,0.34c-0.09,0.1-0.22,0.15-0.37,0.15c-0.88,0-1.67-0.09-2.37-0.28C2.59,17.38,2,17.1,1.52,16.7
		c-0.48-0.39-0.86-0.89-1.12-1.5C0.13,14.59,0,13.85,0,12.98V2.45C0,1.87,0.12,1.42,0.36,1.1c0.24-0.32,0.53-0.56,0.87-0.73
		c0.34-0.16,0.69-0.26,1.06-0.31C2.65,0.02,2.97,0,3.24,0z"/>
	<path class="st0" d="M17.98,17.65c0,0.14-0.07,0.2-0.2,0.2c-0.29,0-0.59-0.03-0.91-0.08c-0.31-0.05-0.61-0.13-0.88-0.24
		c-0.27-0.11-0.5-0.26-0.69-0.46c-0.19-0.19-0.29-0.43-0.31-0.7c0-0.07-0.01-0.1-0.03-0.1c-0.02,0-0.05,0.03-0.1,0.08
		c-0.34,0.36-0.79,0.69-1.36,0.99c-0.57,0.31-1.26,0.46-2.08,0.46c-0.78,0-1.47-0.15-2.07-0.46c-0.6-0.31-1.1-0.71-1.5-1.21
		c-0.41-0.5-0.71-1.08-0.92-1.75c-0.2-0.66-0.31-1.35-0.31-2.07v-7.8c0-0.14,0.07-0.2,0.2-0.2c0.34,0,0.7,0.03,1.08,0.09
		C8.3,4.46,8.65,4.56,8.96,4.72c0.31,0.15,0.58,0.35,0.79,0.6c0.21,0.25,0.32,0.57,0.32,0.96v5.81c0,0.34,0.03,0.69,0.1,1.03
		c0.07,0.35,0.18,0.66,0.33,0.94c0.15,0.28,0.36,0.51,0.61,0.68C11.37,14.91,11.7,15,12.09,15c0.31,0,0.61-0.06,0.91-0.18
		c0.3-0.12,0.56-0.28,0.79-0.47c0.23-0.2,0.41-0.43,0.55-0.7c0.14-0.27,0.2-0.56,0.2-0.87v-6.5c0-0.39,0.09-0.71,0.28-0.96
		c0.19-0.25,0.43-0.45,0.73-0.6c0.3-0.15,0.64-0.26,1.03-0.32c0.39-0.06,0.79-0.09,1.2-0.09c0.14,0,0.2,0.07,0.2,0.2V17.65z"/>
	<path class="st0" d="M47.66,16.4c-0.15,0.36-0.33,0.63-0.54,0.83c-0.2,0.2-0.43,0.34-0.66,0.43c-0.24,0.09-0.48,0.15-0.74,0.17
		c-0.26,0.02-0.5,0.03-0.74,0.03c-0.09,0-0.16-0.01-0.22-0.04c-0.06-0.03-0.11-0.08-0.14-0.17L39.48,4.54
		c-0.03-0.05-0.04-0.1-0.01-0.15c0.03-0.05,0.06-0.08,0.11-0.08c0.51,0,0.99,0.01,1.43,0.03c0.44,0.02,0.84,0.09,1.2,0.22
		c0.36,0.13,0.68,0.32,0.96,0.59c0.28,0.26,0.51,0.64,0.7,1.14l2.4,6.45l2.65-6.43c0.2-0.49,0.42-0.87,0.65-1.13
		c0.23-0.26,0.48-0.46,0.77-0.57c0.28-0.12,0.59-0.19,0.93-0.22c0.34-0.03,0.72-0.04,1.15-0.04c0.17,0,0.22,0.06,0.15,0.18
		L47.66,16.4z"/>
	<path class="st0" d="M60.42,9.38l0.1,0.05c0.03,0,0.05-0.04,0.05-0.13c0-0.2-0.02-0.48-0.06-0.82c-0.04-0.34-0.16-0.68-0.34-1.01
		c-0.19-0.33-0.47-0.62-0.85-0.85c-0.38-0.24-0.91-0.36-1.59-0.36c-0.31,0-0.72,0.05-1.24,0.15c-0.52,0.1-1.11,0.32-1.77,0.66
		c-0.1,0.05-0.2,0.08-0.31,0.08c-0.19,0-0.33-0.07-0.43-0.22c-0.1-0.14-0.1-0.31,0-0.5c0.42-0.77,1.07-1.4,1.94-1.9
		c0.87-0.5,1.85-0.75,2.96-0.75c0.83,0,1.57,0.15,2.22,0.43c0.65,0.29,1.19,0.68,1.63,1.17c0.44,0.49,0.78,1.08,1.01,1.76
		s0.34,1.4,0.34,2.17l-0.03,8.31c0,0.14-0.07,0.2-0.2,0.2c-0.29,0-0.59-0.01-0.89-0.03c-0.31-0.02-0.59-0.06-0.84-0.14
		c-0.26-0.08-0.46-0.2-0.62-0.37c-0.16-0.17-0.24-0.41-0.24-0.71c0-0.1-0.03-0.15-0.08-0.15c-0.03,0-0.07,0.03-0.1,0.08
		c-0.34,0.42-0.84,0.77-1.49,1.03c-0.65,0.26-1.36,0.39-2.1,0.39c-0.68,0-1.31-0.12-1.89-0.37c-0.58-0.25-1.08-0.59-1.5-1.02
		c-0.43-0.43-0.75-0.94-0.98-1.53c-0.23-0.59-0.34-1.22-0.34-1.9c0-0.82,0.13-1.51,0.4-2.08c0.26-0.57,0.62-1.03,1.06-1.39
		c0.44-0.36,0.95-0.62,1.53-0.78c0.58-0.16,1.17-0.24,1.79-0.24c0.31,0,0.74,0.04,1.29,0.11C59.35,8.84,59.89,9.05,60.42,9.38z
		 M56.18,13.03c0,0.6,0.17,1.09,0.52,1.48c0.35,0.39,0.86,0.59,1.54,0.59c0.24,0,0.49-0.03,0.77-0.09c0.27-0.06,0.52-0.16,0.75-0.29
		c0.23-0.14,0.42-0.31,0.57-0.54c0.15-0.22,0.23-0.49,0.23-0.82v-1.25c-0.66-0.73-1.44-1.1-2.32-1.1c-0.26,0-0.51,0.03-0.75,0.1
		c-0.25,0.07-0.47,0.18-0.66,0.33c-0.2,0.15-0.35,0.36-0.47,0.61C56.24,12.32,56.18,12.64,56.18,13.03z"/>
	<g>
		<g>
			<path class="st1" d="M34.84,5.46c1.73-0.27,2.95-0.1,3.27,0.57c0.7,1.44-2.9,4.63-8.05,7.14c-5.15,2.51-9.88,3.37-10.58,1.94
				c-0.44-0.9,0.83-2.51,3.11-4.19c0-0.07,0-0.14,0-0.21c0-4,3.25-7.25,7.25-7.25C31.78,3.45,33.54,4.21,34.84,5.46z"/>
		</g>
		<path class="st1" d="M25.75,16.22c1.23,1.24,2.65,1.74,4.56,1.74c3.74,0,6.77-2.97,6.77-6.63c0-0.55-0.08-1.08-0.2-1.59
			C33.01,13.85,27.22,15.74,25.75,16.22z"/>
	</g>
</g>
</svg>
