<svg xmlns="http://www.w3.org/2000/svg" viewBox="0 0 100 40"><path d="M36.71 35.78V33.6c0-.84-.5-1.38-1.38-1.38-.44 0-.9.14-1.24.61-.25-.4-.61-.61-1.16-.61-.36 0-.73.1-1.02.5v-.43h-.76v3.5h.8v-1.94c0-.62.32-.9.83-.9s.77.32.77.9v1.93h.76v-1.93c0-.62.37-.9.84-.9.5 0 .76.32.76.9v1.93h.8zm11.32-3.5h-1.24v-1.05h-.76v1.06h-.7v.69h.7v1.6c0 .8.32 1.27 1.2 1.27.33 0 .69-.1.94-.25l-.21-.66a1.2 1.2 0 01-.66.19c-.36 0-.5-.22-.5-.59v-1.56h1.23v-.7zm6.44-.06c-.44 0-.73.21-.91.5v-.43h-.77v3.5h.77v-1.97c0-.59.25-.91.73-.91.14 0 .32.03.47.07l.22-.73-.51-.03zm-9.75.36a2.5 2.5 0 00-1.42-.36c-.87 0-1.46.43-1.46 1.12 0 .59.44.91 1.2 1.02l.37.04c.4.07.62.18.62.36 0 .26-.3.44-.8.44a2 2 0 01-1.17-.36l-.36.58c.4.29.94.43 1.49.43 1.02 0 1.6-.47 1.6-1.12 0-.62-.47-.95-1.2-1.06l-.36-.04c-.33-.03-.59-.1-.59-.32 0-.26.26-.4.66-.4.44 0 .87.18 1.09.29l.33-.62zm20.26-.36c-.43 0-.72.21-.9.5v-.43h-.77v3.5h.76v-1.97c0-.59.26-.91.73-.91.15 0 .33.03.47.07l.22-.73-.5-.03zm-9.75 1.82c0 1.05.73 1.81 1.86 1.81.5 0 .87-.1 1.24-.4l-.37-.61c-.29.21-.58.32-.9.32-.63 0-1.06-.43-1.06-1.12 0-.66.43-1.1 1.05-1.13.33 0 .62.1.91.32l.37-.61c-.37-.3-.73-.4-1.24-.4-1.13 0-1.86.76-1.86 1.82zm7.1 0v-1.75h-.77v.44c-.25-.33-.62-.51-1.09-.51-.98 0-1.74.76-1.74 1.82 0 1.05.76 1.81 1.74 1.81.51 0 .88-.18 1.1-.5v.43h.76v-1.74zm-2.84 0c0-.62.4-1.13 1.05-1.13.62 0 1.06.47 1.06 1.13 0 .61-.44 1.12-1.06 1.12-.65 0-1.05-.5-1.05-1.12zm-9.13-1.82c-1.02 0-1.75.72-1.75 1.82 0 1.09.73 1.81 1.78 1.81.51 0 1.02-.14 1.42-.47l-.36-.54c-.3.21-.66.36-1.02.36-.47 0-.95-.22-1.06-.84h2.59v-.29c.07-1.13-.62-1.85-1.6-1.85zm0 .69c.47 0 .8.29.87.83h-1.82c.11-.5.4-.83.95-.83zm18.99 1.13V30.9h-.76v1.82c-.26-.33-.62-.51-1.1-.51-.98 0-1.74.76-1.74 1.82 0 1.05.76 1.81 1.74 1.81.51 0 .88-.18 1.1-.5v.43h.76v-1.74zm-2.84 0c0-.62.4-1.13 1.06-1.13.62 0 1.05.47 1.05 1.13 0 .61-.43 1.12-1.05 1.12-.66 0-1.06-.5-1.06-1.12zm-25.54 0v-1.75h-.76v.44c-.26-.33-.62-.51-1.1-.51-.98 0-1.74.76-1.74 1.82 0 1.05.76 1.81 1.74 1.81.51 0 .88-.18 1.1-.5v.43h.76v-1.74zm-2.8 0c0-.62.4-1.13 1.05-1.13.62 0 1.06.47 1.06 1.13 0 .61-.44 1.12-1.06 1.12-.65 0-1.05-.5-1.05-1.12zm32.42 1.23c.03 0 .1 0 .14.04.04 0 .07.03.11.07.04.04.07.07.07.11 0 .04.04.07.04.15 0 .03 0 .1-.04.14-.03.04-.03.07-.07.11-.04.04-.07.07-.1.07-.04.04-.08.04-.15.04-.04 0-.11 0-.15-.04-.04-.03-.07-.03-.1-.07-.04-.04-.08-.07-.08-.1-.04-.04-.04-.08-.04-.15 0-.04 0-.11.04-.15l.07-.1c.04-.05.07-.08.11-.08.07-.04.11-.04.15-.04zm0 .62c.03 0 .07 0 .1-.04.04 0 .08-.03.08-.07l.07-.07c0-.04.04-.07.04-.11 0-.04 0-.07-.04-.1a.08.08 0 00-.07-.08l-.07-.08c-.04-.03-.08-.03-.11-.03-.04 0-.08 0-.11.03a.08.08 0 00-.08.08l-.07.07c0 .04-.03.07-.03.11 0 .04 0 .07.03.1 0 .05.04.08.07.08l.08.07c.03.04.07.04.1.04zm.03-.44c.04 0 .08 0 .11.04.04.04.04.04.04.07 0 .04 0 .04-.04.08 0 0-.03.03-.07.03l.1.11h-.06l-.11-.1h-.04v.1h-.07v-.33h.14zm-.07.08v.07h.11v-.07h-.11z"/><path fill="#F26522" d="M55.92 5.8H44.46v20.6h11.46V5.8z"/><path fill="#E51B24" d="M45.2 16.1c0-4.19 1.96-7.9 4.98-10.3a13.09 13.09 0 100 20.6 13.13 13.13 0 01-4.99-10.3z"/><path fill="#231F20" d="M70.15 24.21v-.43h.18v-.08h-.44v.08h.19v.43h.07zm.84 0v-.5h-.15l-.14.36-.15-.37h-.15v.51h.11v-.4l.15.33h.1l.15-.33v.4H71z"/><path fill="#F99F1C" d="M71.39 16.1A13.09 13.09 0 0150.2 26.4a13.13 13.13 0 000-20.6 13.09 13.09 0 0121.2 10.3z"/></svg>
