<svg xmlns="http://www.w3.org/2000/svg" viewBox="0 0 100 40"><g transform="translate(-10 -10)"><path fill="#5A78FF" d="M29 43.3a2.2 2.2 0 01-2.1-1.4l-7.7-18.5a2.2 2.2 0 011.2-2.9l8-3.3a2.2 2.2 0 013 1.2L39 37a2.2 2.2 0 01-1.2 3l-8 3.3-.9.1zm.3-25.1a1 1 0 00-.4 0l-8 3.4a1 1 0 00-.6.6 1 1 0 000 .8l7.6 18.5c.3.6.8.8 1.4.6l8-3.3c.3-.1.5-.3.6-.6a1 1 0 000-.8l-7.7-18.6a1 1 0 00-1-.6z"/><path fill="url(#a)" d="M30.7 20l1.1-.4 3 7.3-1 .5-3-7.3z" opacity=".7"/><path fill="url(#b)" d="M38.5 35.7l-1.1.4-3.4-8.3 1-.4 3.5 8.3z" opacity=".7"/><path fill="#5A78FF" d="M36 30.6a13.5 13.5 0 00-5.5 3.9l-3.3-7.9a13.6 13.6 0 015.5-3.8c2.3-1 4.6-1.4 6.6-1.2l3.3 7.9a14 14 0 00-6.6 1.1z"/><g opacity=".4"><path fill="url(#c)" d="M36 30.6a13.5 13.5 0 00-5.5 3.9l-3.2-7.9a13.5 13.5 0 015.4-3.8c2.3-1 4.6-1.4 6.6-1.2l3.3 7.9a14 14 0 00-6.6 1.1z" opacity=".9"/><path fill="url(#d)" d="M36 30.6a13.5 13.5 0 00-5.5 3.9l-3.2-7.9a13.5 13.5 0 015.4-3.8c2.3-1 4.6-1.4 6.6-1.2l3.3 7.9a14 14 0 00-6.6 1.1z" opacity=".7"/></g><path fill="#5A78FF" d="M37 33c-2.4 0-4.7.5-6.5 1.5v-8a13.4 13.4 0 016.5-1.4c2.5 0 4.8.5 6.6 1.5v8A13 13 0 0037 33zm12.7 0l2-6.3.3-.2h1l.2.2 1.5 4h.2l1.6-4c0-.1 0-.2.2-.2h1l.2.2 2 6.3v.2h-1.5l-.2-.1L57 29c0-.1-.1-.1-.2 0l-1.5 4c0 .2-.1.3-.2.3h-.7l-.2-.2-1.6-4.1c0-.1-.1-.1-.1 0l-1.3 4c0 .2-.1.3-.2.3h-1.1l-.1-.1V33zm10.5-2.3a2.7 2.7 0 011.6-2.5c1-.4 2.1-.2 3 .6.7.7 1 1.9.5 2.9a2.7 2.7 0 01-2.4 1.6 2.5 2.5 0 01-2.7-2.6zm4 0a1.3 1.3 0 00-1.4-1.2c-.7 0-1.3.7-1.3 1.3 0 .7.6 1.3 1.4 1.3.7 0 1.3-.7 1.3-1.4zm3.7 2.1l-.2.1v.1c0 .1 0 .2-.2.2h-.9c-.1 0-.2 0-.2-.2v-6.3c0-.1 0-.2.2-.2h1c.1 0 .2 0 .2.2v1.8c0 .1 0 .2.2.1.4-.3.9-.4 1.3-.4 1.4 0 2.4 1.1 2.4 2.6a2.5 2.5 0 01-.7 1.8c-.4.5-1 .8-1.7.8a2.4 2.4 0 01-1.4-.6zm2.4-2c0-.6-.2-1-.6-1.3a1.3 1.3 0 00-1.3 0 1.3 1.3 0 00-.6 1.2c0 .4 0 .7.3 1 .2.3.6.4 1 .4.3 0 .6-.1.9-.4.2-.2.3-.6.3-1zm2.2-3.8c0-.5.3-.8.7-.8s.8.3.8.8-.3.7-.8.7a.8.8 0 01-.7-.7zm0 6v-4.5c0-.2.1-.2.2-.2H74V33l-.1.2h-1c-.2 0-.3-.2-.3-.2zm2.5-1.5v-4.8l.2-.2h1c.1 0 .2 0 .2.2v5c0 .2.1.4.5.4h.1v1c0 .1 0 .2-.2.2-1.3 0-1.8-.4-1.8-1.8zm2.4-.7c0-1 .5-1.8 1.3-2.2.8-.5 1.8-.5 2.6 0 .8.4 1.3 1.3 1.3 2.2 0 .2 0 .4-.2.4h-3.5c0 .7.5 1 1.2 1 .3 0 .7-.1 1-.4l.2-.1h1s.2.1 0 .3a2.6 2.6 0 01-2.8 1.4 2.8 2.8 0 01-2.1-2.6zm3.6-.5s.1 0 0-.1c0-.5-.5-1-1-1-.6 0-1 .5-1.2 1v.2H81zm2.4 2.8v-6.4c0-.1 0-.2.2-.2h3.1c1.4 0 2.4.8 2.4 2.3 0 1.3-1.1 2.2-2.5 2.2h-1.8v2.1l-.2.1h-1c-.1 0-.2 0-.2-.2zm3.2-3.3c.6 0 1-.5 1-1 0-.4 0-.6-.2-.8a1 1 0 00-.8-.4h-1.7l-.1.2v1.8l.1.2h1.7zm3 1a2.5 2.5 0 01.6-1.9 2.6 2.6 0 011.8-.8c.5 0 1 .2 1.4.5h.2v-.2l.2-.1h.9s.2 0 .2.2v3.2c0 .3 0 .4.2.4.1 0 .2 0 .2.2v.8l-.2.2c-.6 0-1-.2-1.2-.6h-.3a2 2 0 01-1.6.6 2.6 2.6 0 01-1.8-.8c-.5-.4-.7-1-.6-1.8zm4 0c0-.6-.3-1-.7-1.3a1.3 1.3 0 00-1.4 0 1.3 1.3 0 00-.6 1.2c0 .5.2 1 .6 1.3s1 .2 1.4 0c.4-.3.7-.8.6-1.3zm2.1 4.2v-.8c0-.1 0-.2.2-.2.6 0 1.2-.4 1.4-1a.5.5 0 000-.4l-1.9-4v-.3h1.2l.2.2 1.1 2.6c0 .2.2.2.3 0l1.1-2.7.2-.1h1.1v.2L98.8 33c-.7 1.6-1.5 2.3-3 2.3l-.1-.2z"/><defs><linearGradient id="a" x1="33.6" x2="33.1" y1="25.4" y2="19.6" gradientUnits="userSpaceOnUse"><stop stop-color="#504678"/><stop offset=".3" stop-color="#504678" stop-opacity=".6"/><stop offset=".6" stop-color="#504678" stop-opacity=".3"/><stop offset=".8" stop-color="#504678" stop-opacity=".1"/><stop offset="1" stop-color="#504678" stop-opacity="0"/></linearGradient><linearGradient id="b" x1="35.3" x2="35.6" y1="29.6" y2="36.1" gradientUnits="userSpaceOnUse"><stop stop-color="#504678"/><stop offset=".3" stop-color="#504678" stop-opacity=".6"/><stop offset=".6" stop-color="#504678" stop-opacity=".3"/><stop offset=".8" stop-color="#504678" stop-opacity=".1"/><stop offset="1" stop-color="#504678" stop-opacity="0"/></linearGradient><linearGradient id="c" x1="29.4" x2="35.4" y1="30.1" y2="26" gradientUnits="userSpaceOnUse"><stop stop-color="#504678"/><stop offset=".2" stop-color="#504678" stop-opacity=".9"/><stop offset=".5" stop-color="#504678" stop-opacity=".5"/><stop offset="1" stop-color="#504678" stop-opacity="0"/></linearGradient><linearGradient id="d" x1="34.6" x2="34.3" y1="26.1" y2="23.9" gradientUnits="userSpaceOnUse"><stop stop-color="#504678"/><stop offset=".6" stop-color="#504678" stop-opacity=".3"/><stop offset="1" stop-color="#504678" stop-opacity="0"/></linearGradient></defs></g></svg>
