<svg xmlns="http://www.w3.org/2000/svg" viewBox="0 0 100 40"><path fill="#164193" d="M78.777 15.085c-2.83.206-5.092 2.52-5.298 5.35-.206 3.343 2.417 6.12 5.71 6.12 1.182 0 2.777-.617 3.497-1.852v1.698h2.211v-5.452c.103-3.6-2.829-6.12-6.12-5.864zM82.53 21c-.103 1.903-1.748 3.343-3.703 3.086a3.382 3.382 0 01-2.88-2.88c-.206-2.006 1.337-3.703 3.292-3.703 1.748 0 3.188 1.388 3.291 3.137V21zm-15.892-5.915c-3.034.103-5.606 2.417-5.606 5.812 0 3.086 2.52 5.709 5.76 5.709 2.264 0 4.475-1.337 5.35-3.549l-2.212-.668c-.411.925-1.389 1.697-2.469 1.903-1.543.308-2.983-.67-3.549-1.698l8.59-2.366c-.309-2.263-2.212-5.246-5.864-5.143zm-3.188 5.503c0-1.183.72-2.571 2.263-3.137 1.748-.669 3.291.206 3.96 1.44l-6.223 1.697zM47.711 17.4v-2.366c-2.16.052-2.88 1.08-3.24 1.698v-1.286h-2.469V26.4h2.52V21c.052-2.52 1.492-3.498 3.19-3.6zM25.08 21.978l-7.508-8.795H15V26.4h2.623v-8.847l7.612 8.847h2.366V13.183h-2.52v8.795zM59.49 12h-2.366v4.32c-.566-.72-2.315-1.337-3.807-1.183-2.828.206-5.091 2.52-5.297 5.35-.206 3.343 2.417 6.12 5.709 6.12 1.234 0 2.932-.566 3.497-1.646v1.44h2.212V12h.051zm-2.418 9c-.103 1.904-1.749 3.344-3.703 3.087a3.382 3.382 0 01-2.88-2.88c-.206-2.006 1.337-3.704 3.291-3.704 1.75 0 3.19 1.389 3.292 3.138V21zm-22.271-5.915a5.751 5.751 0 00-5.76 5.76 5.751 5.751 0 005.76 5.761 5.751 5.751 0 005.761-5.76 5.751 5.751 0 00-5.76-5.76zm0 9.053c-1.8 0-3.291-1.492-3.291-3.292 0-1.8 1.491-3.292 3.291-3.292 1.8 0 3.292 1.492 3.292 3.292 0 1.8-1.44 3.292-3.292 3.292z"/></svg>
