<svg xmlns="http://www.w3.org/2000/svg" viewBox="0 0 100 40"><g fill="#1DCA7A"><path d="M42.3 16c1.5 0 2.4 1 2.4 2.7v7.1h1.7v-7.2c0-2.4-1.4-4-4-4-2 0-3.1 1-3.7 2.3a3.8 3.8 0 00-3.7-2.2c-1.4 0-2.6.5-3.5 1.8V15H30v10.8h1.7V19c0-1.6 1.2-3 3.2-3 1.5 0 2.5 1 2.5 2.7v7.1H39v-6.7c0-2 1.3-3 3.3-3zm33.8-3.4h1.7l-.1-1c-.6-3-3-4.6-5.6-4.6a5.5 5.5 0 00-5.6 5.6c0 3.4 2 4.7 2 8 0 2.3-1.4 4-3.7 4-2.4 0-4-1.9-4-4.2 0-2.3 1.6-4 3.2-4.2h.6v-1.5l-.7.1a5.5 5.5 0 00-4.7 5.6c0 3.1 2.3 5.7 5.6 5.7 3.2 0 5.5-2.5 5.5-5.6 0-3.6-2-4.9-2-8 0-2.5 1.6-4.1 3.8-4.1 2 0 3.5 1 4 3.4v.8z"/><path d="M77.8 14.7c-1.7 0-3 .8-4 2.3v-2h-1.7v17h1.7V20c0-2.5 1.7-4 3.8-4 2.4 0 4 1.9 4 4.2 0 2.5-1.5 4.5-4 4.5-.7 0-1.3-.1-1.8-.4v1.5c.5.2 1.2.3 1.8.3 3.6 0 5.7-2.6 5.7-5.9 0-3-2.4-5.5-5.5-5.5zm-24.8 0c-2.3 0-4 1-4.3 2.7h1.7c.3-1 1.3-1.3 2.5-1.3 1.5 0 2.7.6 2.7 2.2v.3c0 .6-.3 1-1 1H52c-2.2 0-3.7 1.2-3.7 3.2s1.6 3.3 3.9 3.3c1.4 0 2.7-.5 3.4-1.8v1.5h1.7v-7.5c0-2.2-1.7-3.6-4.4-3.6zm2.6 7.2c0 2-1.6 2.8-3.2 2.8-1.8 0-2.4-1-2.4-2s.6-1.9 2.2-1.9h2c.6 0 1.1 0 1.4-.4V22zm-33-7.2a5.5 5.5 0 00-5.6 5.7c0 3.3 2.5 5.7 5.6 5.7 3 0 5.5-2.4 5.5-5.7 0-3.4-2.4-5.7-5.5-5.7zm0 10c-2.4 0-3.9-1.9-3.9-4.3 0-2.5 1.5-4.3 3.9-4.3 2.3 0 3.8 1.8 3.8 4.3 0 2.4-1.5 4.3-3.8 4.3z"/></g></svg>
