<svg xmlns="http://www.w3.org/2000/svg" viewBox="0 0 100 40"><path fill="#FF6A10" d="M34.65 34.3a14.65 14.65 0 100-29.3 14.65 14.65 0 000 29.3z"/><path fill="none" stroke="#fff" stroke-width="2.93" d="M34.65 8.22v22.85m-9.96-11.42a4.98 4.98 0 109.96 0 4.98 4.98 0 00-9.96 0h0zm9.96 0a4.98 4.98 0 109.96 0 4.98 4.98 0 00-9.96 0h0z"/><path fill="#6E6E6E" d="M61.3 27.9c-4.04 0-5.38-2.98-5.38-5.9v-4.58c0-2.99 1.34-5.92 5.39-5.92 4.04 0 5.39 3 5.39 5.92V22c-.06 2.93-1.41 5.92-5.4 5.92zm3.87-10.48c0-2.52-1-4.57-3.92-4.57-2.93 0-3.93 2.11-3.93 4.57V22c0 2.52 1 4.57 3.93 4.57s3.92-2.1 3.92-4.57v-4.57zm8.97 3.7h-3.75v6.03c0 .4-.3.7-.7.7-.42 0-.7-.3-.7-.7V12.38c0-.4.34-.7.7-.7h4.21c3.75 0 5.1 2.17 5.1 4.22V17c0 2.4-1.82 4.1-4.86 4.1zm3.4-5.22c0-1.3-.83-2.87-3.7-2.87H70.4v6.8h3.69c2.34 0 3.46-1.3 3.46-2.82V15.9z"/></svg>
