<svg xmlns="http://www.w3.org/2000/svg" viewBox="0 0 100 40"><path fill="#8DC63F" d="M89.822 15.47l-.322.053-.053-.054c-.108.054-.215.054-.322.054-.107 0-.16-.054-.268-.107-.053 0-.107.053-.214.053-.053 0-.16 0-.214-.053-.107 0-.16-.054-.214-.16 0-.055-.054-.108-.107-.215-.054.053-.108.053-.161.053-.054 0-.107 0-.16-.053 0 0-.054 0-.054-.054 0 0 0 .054-.054.054a.294.294 0 01-.268.16h-.053c-.054 0-.107 0-.16-.053v.053c-.054.215-.162.322-.269.322h-.107c0 .053-.053.107-.053.16l-.108.108a1.109 1.109 0 01-.214.321c-.053.054-.053.054-.107.054-.053.107-.107.267-.214.428-.107.107-.214.268-.375.375 2.142-.16 3.642-.91 4.285-1.446 0-.054-.107 0-.215-.054z"/><path fill="#00AB4E" d="M90.893 13.488c-.161 0-.161-.107-.161-.107s.375-.375.268-.375h-.053s.053-.321-.108-.268c-.107.054-.16.054-.16.054s-.054-.107 0-.16c.053-.054-.161 0-.161 0s.429-.483.268-.429c-.107.053-.107-.054-.107-.054s.107-.053.16-.107c.054-.053.108-.16.054-.16s-.107-.054-.107-.054.214-.428.107-.375c-.268.107-.321 0-.321 0s.107-.321.053-.375c0 0-.161 0-.053-.053.053-.054.16-.215.16-.215s-.107.054-.053-.053c.053-.107.107-.322.053-.268-.107 0-.16-.107-.16-.107s.267-.268.267-.429c0 0-.321-.053-.267-.053.214-.107.321-.322.321-.375 0-.054-.161 0-.161-.054.161-.053.107-.267.161-.375 0-.053-.161-.053-.161-.053s-.107-.16 0-.214c.107-.107.161-.215.107-.215-.16 0 0-.107 0-.16 0 0 .108-.107.054-.107-.161 0-.375.16-.375.16l-.054-.053c0 .053-.053.16-.107.214a.986.986 0 01-.16.214l-.107-.107s-.054.107-.054.16a.77.77 0 00-.107.162s-.054-.054-.054 0c0 .053-.053.16-.053.16l-.107-.16-.108.267a.4.4 0 01-.16.161s-.054-.107-.054-.054c0 .161-.16.268-.16.268s-.161-.107-.161-.16c-.107 0-.16.16-.268.267-.107.107-.214.161-.214.161s0-.107-.107-.107c-.054.16-.215.321-.215.321s-.053-.16-.107-.16c-.053.053-.107.053-.107.053s0-.107-.053-.16c-.054-.054-.054-.108-.107-.108 0 .054-.108.107-.161.161-.054.054-.16.054-.16.054s-.108-.161-.108-.108c0 0 0 .161-.053.215-.054.107-.108.16-.108.16s-.107-.107-.107-.053c0 0-.053.107-.107.16 0 .108-.107.161-.107.161s0-.053-.053-.107c0-.053-.054-.053-.054-.053s-.054 0-.054.053h-.053c0-.053-.054-.16-.107-.268-.054-.053-.107-.214-.16-.16-.054.053-.054.107-.108.107-.054.053-.107.053-.107.053l-.054-.053c0 .053 0 .107-.053.16-.054.054-.054.108-.107.108 0 0-.107-.108-.161-.108 0 0-.054.161-.107.268-.054.107-.16.268-.16.268s0-.054-.054-.054c0-.053-.054-.107-.107-.053 0 .053-.054.107-.108.16-.053.054-.16.108-.16.108s.16.053.16 0c0-.054-.053 0-.053 0h-.054l-.053.053-.161-.16c-.054-.054-.107-.054-.107-.054-.107.053-.107.107-.214.16-.161.054-.215.376-.215.376s-.053 0-.053-.054h-.054c-.107 0 0 .214-.053.321l-.107.322s-.108-.107-.161-.054c0 .054-.054.16-.054.214l-.107.215a.409.409 0 01-.268-.108c-.107-.053-.107-.214-.214-.214 0 .214-.16.482-.16.482s-.054-.053-.108 0c0 .054.054.107.054.214v.268s-.054-.053-.16 0c.106.268.053.59.053.59s-.107-.054-.214 0c-.054.107.053.267.107.428.053.107 0 .268 0 .268s-.107 0-.161.107c.107.803 1.553 1.928 1.767 2.142.108.107.108.054.108.16.053.215-.268.43-.268.43s-.429.267-1.66.267h-.965l-2.41 3.16V13.06l-2.035.964v11.89h2.035v-3.642l2.25 3.642h2.731L81.2 21.04l2.463-2.945c.482-.536 1.072-.804 1.286-.965.857-.535.91-1.178.91-1.178s.054-.054.108 0c0 .054.053.054.053.054s.107-.108.107-.161c0 0-.053-.16 0-.16h.214v-.161s.054 0 .054-.054c0-.107.053-.107.053-.107h.215c.053.053.053 0 .053 0 .054 0 .054-.107.054-.16.053-.054.053-.108.107-.161.16-.108.214-.161.214-.161s.107 0 .107.053c.054.054.161.054.161.054s.054-.107.16-.214c.108-.054.215-.054.215-.054l.053.054c0 .053.108.107.108.107s.053-.107.267-.107c.215-.054.322-.054.322-.054v.322c0 .107.053.16.053.16h.107v.107h.108c.053-.053.267-.107.267-.107s-.053.054 0 .107c.054 0 .108.054.108.054.053 0 .107 0 .267-.107.161-.107.215-.107.215-.107v.107h.107v.214c.053.054.321-.053.321-.053.054.16.268 0 .321-.054 0 0 0-.107.054-.107.214-.107.321-.268.214-.214-.053 0-.107-.054-.107-.054.054-.053.321-.375.214-.375-.16.054-.268.054-.268.054s.108-.054.054-.161c0 0-.268 0-.161-.107.054-.054.161-.214.107-.16-.053 0-.053-.054-.053-.054s.107 0 .214-.107c.214-.429.322-.59.268-.59zm-53.185.375c-1.231 0-2.838.107-3.749.107v11.837h2.25V15.47h1.07c1.608 0 2.411.75 2.411 2.57 0 2.143-1.392 2.411-2.25 2.411l-.75 1.607h.59c.643 0 2.25 0 3.374-.964.75-.643 1.393-1.66 1.393-3.214 0-1.178-.375-2.196-.964-2.892-.91-1.071-2.303-1.125-3.375-1.125zm-6.802 1.285c-1.392-1.339-3.374-1.446-3.803-1.446-1.446 0-2.945.268-4.391 1.553-1.179 1.072-1.982 2.571-1.982 4.714 0 2.838 1.607 6.105 5.784 6.105 3.16 0 6.213-2.035 6.213-6.266 0-2.57-1.124-4.017-1.82-4.66zm-4.017 9.48c-1.981 0-3.749-1.82-3.749-4.874 0-2.41 1.125-4.552 3.481-4.552 1.982 0 3.75 1.82 3.75 4.927-.054 3.535-2.196 4.5-3.482 4.5zM15.75 13.863c-1.233 0-2.84.107-3.75.107v11.837h2.25V15.47h1.124c1.607 0 2.41.75 2.41 2.57 0 2.197-1.392 2.411-2.25 2.411l-.749 1.607h.59c.642 0 2.249 0 3.373-.964.75-.643 1.393-1.66 1.393-3.214 0-1.178-.375-2.196-.964-2.892-.964-1.071-2.357-1.125-3.428-1.125zm60.789 3.427h-2.357l-2.463 3.16v-7.498l-2.036.964v11.89h2.036v-3.642l2.25 3.642h2.73l-3.213-4.873 3.053-3.642z"/><path fill="#00AB4E" d="M85.216 25.806h2.089v-8.515l-2.09 1.07v7.445zm-19.014-8.729c-.964 0-1.981.589-2.785 1.231l.054-1.017-2.09 1.017v7.499h2.09v-5.838c.267-.268 1.017-.91 1.82-.91.911 0 .911.75.911 2.088v4.66h2.089v-5.249c0-1.018 0-1.821-.321-2.41-.268-.482-.804-1.071-1.768-1.071zM52.33 15.04c-.964-1.07-2.357-1.124-3.428-1.124-1.232 0-2.838.107-3.749.107V25.86h2.25V15.523h1.124c1.607 0 2.41.75 2.41 2.57 0 2.197-1.392 2.41-2.249 2.41l-.75 1.608h.59c.642 0 2.249 0 3.373-.964.75-.643 1.393-1.66 1.393-3.214 0-1.232-.375-2.25-.964-2.892zm7.338 9.16c-.375 0-.375-.268-.375-.75l.053-3.053c0-.91 0-1.446-.214-2.088-.214-.536-.91-1.232-2.357-1.232-.642 0-1.82.16-2.892.857l.59 1.5c.32-.322.856-.697 1.713-.697.214 0 .643 0 .91.321.215.215.215.429.215 1.66-3.535.536-4.231.965-4.231 2.84 0 2.195 1.285 2.463 1.767 2.463.91 0 1.821-.428 2.625-.803.16.267.375.803 1.124.803.965 0 1.929-.643 1.982-.696l-.482-1.178c-.107.053-.268.053-.428.053zm-2.357-.268c-.696.215-.964.322-1.393.322-.642 0-.857-.268-.857-.965 0-.696.161-.803.643-.91.107-.053.804-.214 1.607-.321v1.874z"/></svg>
