<svg xmlns="http://www.w3.org/2000/svg" viewBox="0 0 100 40"><path fill="#F4A800" d="M21.4 25.4v-3.3l.7.4a8 8 0 004.2 1.5c.6 0 1.3 0 1.9-.2 1-.4 1-1.5.2-2-.4-.4-.9-.6-1.3-.8l-3-1.1c-1.2-.6-2.4-1.4-2.8-2.8-.8-2.4 0-4.8 3-5.7 2.3-.7 4.7-.4 7 .4l.8.3.1.1v3l-.6-.2c-1.5-.6-3-1.2-4.5-1.1-.5 0-1 .1-1.4.3-.8.4-1 1.3-.2 1.8.5.3 1 .6 1.7.8l3.5 1.6a4.3 4.3 0 012 5.5 4.6 4.6 0 01-3.2 2.7 10 10 0 01-8-1.1h-.1zm51.5-3.8a5.5 5.5 0 01-6 5.3 5.5 5.5 0 01-5.2-6 5.6 5.6 0 016-5c3 0 5.4 2.8 5.2 5.7zm-5.6-2.8a2.7 2.7 0 00-2.6 2.6c0 1.5 1.2 2.6 2.6 2.6 1.5 0 2.7-1.2 2.7-2.7 0-1.3-1.3-2.5-2.7-2.5zm-6-.4h-3.9v4.4c0 1 .7 1.6 1.7 1.6l1.1-.1 1.1-.5v2.5c-1.7.6-3.5 1-5.3.2-1.4-.7-2-1.9-2-3.4v-4.7h-1.5v-.7l3-3.4 1.3-1.3.6-.3V16h3.9v2.3zm-17.8-2.1h3.3V19h.1l.3-.5 1.3-1.7c1-.9 2-1 3-.4l1 .6-1 3a3 3 0 00-1.1-.6c-1-.4-1.8-.2-2.4.6-.7 1-1.3 2-1.2 3.3v3.4h-3.3V16.3zm-6.3 0v10.4H34V16.3h3.3zm1.5-.1H42v10.5h-3.3V16.2zm3.5-3.3c0 1-.8 1.8-1.9 1.8-1 0-1.8-.8-1.8-1.8s.8-1.9 1.8-1.9 1.9.8 1.9 1.9zm-4.8-.1c0 1-.8 1.9-1.8 1.9s-2-.8-2-1.9c0-1 .9-1.8 2-1.8 1 0 1.8.8 1.8 1.8z"/><path fill="#F32534" d="M76.3 26.9a2.6 2.6 0 01-2.7-2.7c0-1.5 1.1-2.7 2.7-2.7 1.5 0 2.7 1.2 2.7 2.8 0 1.5-1.2 2.6-2.7 2.6z"/></svg>
