<svg xmlns="http://www.w3.org/2000/svg" viewBox="0 0 100 40"><path fill="#5B8F22" d="M83.644 13.797a1.35 1.35 0 011.35-1.349 1.35 1.35 0 011.348 1.349 1.35 1.35 0 01-1.349 1.348 1.357 1.357 0 01-1.349-1.348zM50.047 16.45v.255c.987.542.85 1.168.85 2.166v5.182c0 .998.137 1.604-.85 2.156v.265h3.738v-.265c-.988-.542-.85-1.126-.85-2.124v-3.493c0-1.572.924-2.9 2.58-2.9 1.806 0 2.496 1.094 2.496 3.059v3.323c0 .977.138 1.583-.85 2.135v.265H60.9v-.265c-.987-.542-.85-1.126-.85-2.135v-4.077c0-3.292-2.367-3.823-3.96-3.823-1.306 0-2.538.648-3.154 1.678v-1.678h-.265c-.468.266-.818.276-1.306.276h-1.317zm-28.84-4.077a11.607 11.607 0 00-3.303-.478c-2.835 0-5.575 1.03-5.575 3.759 0 4.64 7.508 4.11 7.508 7.348 0 1.264-1.604 2.007-3.101 2.007-1.73 0-3.621-.7-4.736-1.741l.573 2.888c1.264.456 2.623.648 3.972.648 3.706 0 5.946-1.72 5.946-4.206 0-3.992-7.465-4.215-7.465-7.178 0-1.263 1.466-1.826 2.74-1.826 1.242 0 2.665.499 3.451 1.21v-2.431h-.01zm2.898 6.403c.192-.202.478-.372.722-.372h4.62c.244 0 .233.17.042.372l-.828.913c-.191.202-.489.372-.722.372h-4.63c-.223 0-.234-.17-.042-.372l.838-.913zM61.93 12.15v.255c.966.541.828 1.157.828 2.166v9.493c0 .998.138 1.603-.828 2.156v.265h3.738v-.265c-1.009-.542-.87-1.147-.87-2.156V11.8h-.266c-.287.33-.637.35-1.126.35H61.93zm6.594 13.093c.425.594.977 1.22 2.284 1.22h1.74c-1.008-.605-1.677-1.539-2.367-2.43l-2.73-3.367 3.739-4.205h-3.4v.255c.19.042.425.138.425.446 0 .541-.807 1.37-1.137 1.741l-1.858 1.986 3.302 4.354zm14.74-8.793v.255c.987.542.849 1.147.849 2.145v5.203c0 .998.138 1.604-.85 2.145v.266H87v-.266c-.987-.541-.85-1.146-.85-2.155v-7.932h-.254c-.383.329-.744.35-1.264.35l-1.37-.01zm-52.914-4.3v.255c1.115.435.977 1.837.977 2.814v8.197c0 .988.138 2.39-1.009 2.782v.266h4.45v-.266c-1.19-.648-1.169-1.316-1.169-2.538v-9.886h1.572c1.869.011 3.196.786 3.196 2.698 0 1.91-1.56 3.037-4.024 3.037v.254c.393.17 1.104.255 1.667.266 2.57.042 4.831-1.572 4.831-4.078 0-2.432-2.155-3.812-5.065-3.812l-5.426.01zm-.732 7.316h.403c.234 0 .234.17.042.372l-.828.913c-.18.212-.488.372-.722.372h-4.619c-.234 0-.234-.17-.043-.372l.128-.138h4.215c.234 0 .532-.17.723-.372l.7-.775zm42.93-7.316v.255c.967.541.83 1.157.83 2.166v9.493c0 .998.137 1.603-.83 2.156v.265h3.739v-.265c-1.01-.542-.871-1.147-.871-2.156V11.8h-.266c-.286.33-.626.35-1.125.35h-1.476zm6.585 13.093c.424.594.987 1.22 2.283 1.22h1.73c-1.008-.605-1.677-1.539-2.368-2.43l-2.729-3.378 3.728-4.205h-3.398v.255c.19.043.424.138.424.446 0 .542-.807 1.37-1.147 1.742l-1.837 1.985 3.314 4.365zm-29.075-.053c-1.91 0-2.134-.457-2.134-2.411l.032-3.122c0-2.888-1.614-3.483-4.014-3.483-.393 0-2.06-.021-2.251.69-.276.988-.712 1.625-.712 1.625a5.602 5.602 0 012.889-.786c.828 0 2.039.255 2.039 1.179 0 2.251-6.616 1.136-6.616 4.885 0 1.922 1.55 2.994 3.76 2.994.381 0 .445.01 1.05 0l1.264-1.55c-.648.01-.796 0-1.327 0-1.53 0-2.485-.35-2.485-1.561 0-1.009 1.253-1.487 2.304-1.731.828-.191 1.54-.35 2.05-.743v3.313c0 1.741 1.348 2.219 2.898 2.219l1.253-1.519z"/></svg>
