<svg xmlns="http://www.w3.org/2000/svg" viewBox="0 0 100 40"><path fill="#1A1F71" d="M41.46 11.9L34.4 28.74h-4.6l-3.48-13.45c-.2-.82-.4-1.14-1.03-1.47A18.65 18.65 0 0021 12.39l.1-.49h7.41c.95 0 1.8.63 2 1.7l1.83 9.75L36.9 11.9h4.57zm6.23 0l-3.6 16.84h-4.36l3.6-16.84h4.36zm11.8 11.33c.02-4.45-6.14-4.7-6.1-6.68.02-.6.59-1.24 1.85-1.4a8.13 8.13 0 014.3.75l.75-3.58c-1.05-.38-2.4-.73-4.06-.73-4.31 0-7.32 2.3-7.37 5.55-.02 2.42 2.17 3.77 3.81 4.6 1.7.81 2.28 1.34 2.25 2.07-.02 1.14-1.34 1.62-2.6 1.65-2.2.04-3.46-.6-4.47-1.08l-.8 3.69c1.01.46 2.9.86 4.84.88 4.6.04 7.58-2.23 7.6-5.73zm11.37 5.49h4.02l-3.52-16.84h-3.7c-.84 0-1.54.49-1.85 1.24l-6.53 15.6h4.57l.9-2.5h5.58l.53 2.5zm-4.87-5.96l2.3-6.31 1.32 6.31H66z"/></svg>
